<?xml version="1.0" encoding="UTF-8"?>
<svg id="Layer_1" data-name="Layer 1" xmlns="http://www.w3.org/2000/svg" viewBox="0 0 122.75 164.99">
  <defs>
    <style>
      .cls-1 {
        fill: #efa7ca;
      }

      .cls-2 {
        fill: #ec4195;
      }

      .cls-3 {
        fill: #e566a6;
      }

      .cls-4 {
        fill: #eea6ca;
      }
    </style>
  </defs>
  <path class="cls-1" d="m122,148.29l-17.56-48.92,10.18-7.55c6.08-5.11,5.93-14.62-.5-19.47l-39.63-29.39-53.01,39.31L0,98.2v53.93c0,9.87,10.82,15.66,18.95,10.64l23.8-17.65,17.65,5.33,46.32,13.99c9.77,2.91,18.75-6.52,15.29-16.16Z"/>
  <path class="cls-4" d="m114.11,72.36l-39.63-29.39-15.77-11.7L19.85,2.44C11.64-3.6,0,2.25,0,12.49v53.86s21.48,15.93,21.48,15.93l41.34,30.66,11.67,8.65,29.95-22.21,10.18-7.55c6.08-5.11,5.93-14.62-.5-19.47Z"/>
  <path class="cls-2" d="m114.11,72.36l-39.63-29.39-53.01,39.31L0,98.2v53.93c0,9.87,10.82,15.66,18.95,10.64l23.8-17.65,31.74-23.54,29.95-22.21,10.18-7.55c6.08-5.11,5.93-14.62-.5-19.47Z"/>
  <path class="cls-3" d="m74.49,121.59l29.95-22.21,10.18-7.55c6.08-5.11,5.93-14.62-.5-19.47l-39.63-29.39-53.01,39.31,41.34,30.66,11.67,8.65Z"/>
</svg>